Coordinates
version=1
nRows=28
nColumns=33
inDegrees=yes

Units are S.I. units (second, meters, Newtons, ...)
Angles are in degrees.

endheader
time	ground_thorax_rot_x	ground_thorax_rot_y	ground_thorax_rot_z	ground_thorax_tx	ground_thorax_ty	ground_thorax_tz	clav_prot_r	clav_elev_r	scapula_abduction_r	scapula_elevation_r	scapula_upward_rot_r	scapula_winging_r	shoulder_elv_r	plane_of_elev_r	axial_rot_r	elbow_flexion_r	pro_sup_r	wrist_flex_r	wrist_dev_r	clav_prot_l	clav_elev_l	scapula_abduction_l	scapula_elevation_l	scapula_upward_rot_l	scapula_winging_l	shoulder_elv_l	plane_of_elev_l	axial_rot_l	elbow_flexion_l	pro_sup_l	wrist_flex_l	wrist_dev_l	
3.3000	-41.133802	-7.791130	5.350202	-206.239426	883.301122	-6.538560	10.264250	-45.000000	35.265028	-45.000000	-45.089763	1699.429377	-2268.691737	149.097136	-94.803681	736.138037	59.757638	17.949634	5.267520	15.475272	38.120481	-37.377775	-45.000000	-45.000000	-633.543372	-1896.655075	140.343182	158.136232	1451.642132	-318.307899	7.324453	-22.576293	
3.3100	-41.051345	-7.478445	5.243627	-206.914738	884.886644	-6.495655	10.295861	-45.000000	35.346545	-45.000000	-44.909066	1699.355077	-2268.637307	149.105513	-94.884553	736.187615	59.727797	17.885179	5.126127	15.305021	38.238005	-37.375821	-45.000000	-45.000000	-633.440776	-1896.628910	140.375007	157.868287	1451.738372	-318.182245	7.294780	-22.692726	
3.3200	-40.970081	-7.199387	5.160447	-207.500238	886.392486	-6.443529	10.363450	-45.000000	35.389906	-45.000000	-44.868397	1699.275364	-2268.579734	149.038139	-94.941583	736.248257	59.692255	17.809273	4.974355	15.153147	38.278536	-37.339424	-45.000000	-45.000000	-633.327236	-1896.601161	140.364841	157.613585	1451.803570	-318.063809	7.243661	-22.779659	
3.3300	-40.887069	-6.940886	5.095686	-207.887713	887.723547	-6.370630	10.415117	-45.000000	35.444798	-45.000000	-44.827114	1699.212119	-2268.532541	148.982569	-95.087915	736.289791	59.657174	17.749680	4.869112	15.063898	38.293572	-37.323115	-45.000000	-44.999999	-633.260161	-1896.577245	140.389202	157.432057	1451.872138	-317.969214	7.210822	-22.850576	
3.3400	-40.806014	-6.721083	5.056514	-208.068848	888.873925	-6.277339	10.468112	-45.000000	35.494314	-45.000000	-44.815237	1699.163357	-2268.486679	148.916500	-95.265827	736.328789	59.619271	17.703808	4.790302	15.017151	38.275758	-37.305474	-45.000000	-44.999999	-633.209958	-1896.554600	140.413707	157.288151	1451.936256	-317.891559	7.176842	-22.898389	
3.3500	-40.725809	-6.534772	5.040449	-208.022377	889.827721	-6.162931	10.519004	-45.000000	35.546778	-45.000000	-44.815493	1699.128239	-2268.445612	148.849060	-95.461422	736.361273	59.579618	17.665083	4.731025	15.002411	38.235547	-37.296077	-45.000000	-44.999998	-633.187799	-1896.536431	140.452595	157.171935	1452.002504	-317.826733	7.136496	-22.925463	
3.3600	-40.652087	-6.386065	5.042817	-207.755433	890.595892	-6.030089	10.567494	-45.000000	35.599420	-45.000000	-44.805386	1699.110224	-2268.402005	148.785224	-95.653382	736.398388	59.541857	17.642701	4.685334	15.005424	38.190401	-37.289389	-45.000000	-44.999996	-633.167235	-1896.517945	140.483673	157.062659	1452.075308	-317.764474	7.083838	-22.934702	
3.3700	-40.586231	-6.259572	5.050986	-207.289077	891.202907	-5.882889	10.611405	-45.000000	35.662692	-45.000000	-44.762317	1699.103423	-2268.360882	148.730982	-95.820348	736.442615	59.511984	17.623606	4.636148	15.004867	38.151819	-37.298525	-45.000000	-44.999993	-633.163780	-1896.500608	140.530404	156.956058	1452.161157	-317.693181	7.012152	-22.933253	
3.3800	-40.529484	-6.154741	5.065249	-206.645910	891.675609	-5.724919	10.644691	-45.000000	35.731359	-45.000000	-44.682756	1699.112629	-2268.318765	148.691583	-95.961790	736.489512	59.502756	17.621388	4.593090	14.998638	38.128330	-37.311314	-45.000000	-44.999988	-633.158528	-1896.474677	140.559247	156.862766	1452.255718	-317.600109	6.926980	-22.922950	
3.3900	-40.479287	-6.058468	5.078727	-205.850381	892.042110	-5.559036	10.671239	-45.000000	35.809044	-45.000000	-44.573094	1699.129657	-2268.280942	148.661674	-96.085524	736.532256	59.526615	17.622812	4.549179	14.975107	38.108663	-37.330313	-45.000000	-44.999978	-633.175434	-1896.438444	140.585743	156.802727	1452.352509	-317.473213	6.826633	-22.904309	
3.4000	-40.434205	-5.981597	5.098351	-204.928045	892.331244	-5.387195	10.697113	-45.000000	35.890313	-45.000000	-44.443064	1699.153377	-2268.243032	148.637868	-96.190264	736.567763	59.597750	17.636897	4.511606	14.938002	38.086116	-37.331280	-45.000000	-44.999961	-633.200020	-1896.381153	140.575586	156.789387	1452.439750	-317.301321	6.714630	-22.874808	
3.4100	-40.395848	-5.906811	5.108552	-203.904772	892.571764	-5.210659	10.713711	-45.000000	35.975581	-45.000000	-44.270579	1699.184124	-2268.202953	148.623138	-96.277625	736.601279	59.725679	17.651074	4.470397	14.894289	38.067980	-37.333376	-45.000000	-44.999931	-633.246797	-1896.305028	140.556078	156.818541	1452.520241	-317.076966	6.592790	-22.840475	
3.4200	-40.360679	-5.838375	5.115243	-202.804910	892.792089	-5.030284	10.719943	-45.000000	36.064583	-45.000000	-44.070902	1699.218751	-2268.157151	148.611945	-96.339278	736.630969	59.920047	17.672388	4.432729	14.852572	38.051760	-37.328810	-45.000000	-44.999876	-633.296912	-1896.212925	140.505297	156.883684	1452.589919	-316.796211	6.465376	-22.800619	
3.4300	-40.332672	-5.757351	5.096681	-201.649433	893.019640	-4.847058	10.714970	-45.000000	36.161819	-45.000000	-43.822146	1699.256962	-2268.106582	148.600451	-96.385671	736.669691	60.185684	17.691761	4.390209	14.818015	38.043323	-37.354276	-45.000000	-44.999777	-633.344805	-1896.124781	140.454770	156.970821	1452.657531	-316.458636	6.334412	-22.761107	
3.4400	-40.310712	-5.668170	5.061058	-200.453765	893.280623	-4.662497	10.693384	-45.000000	36.270765	-45.000000	-43.529952	1699.296614	-2268.049890	148.590896	-96.413986	736.717285	60.525729	17.711277	4.345862	14.798911	38.042375	-37.408802	-45.000000	-44.999601	-633.378162	-1896.042715	140.400740	157.076752	1452.725357	-316.071518	6.201099	-22.721179	
3.4500	-40.300330	-5.559684	4.995677	-199.226429	893.599564	-4.478904	10.654663	-45.000000	36.385877	-45.000000	-43.185483	1699.342039	-2267.984773	148.576333	-96.435383	736.783557	60.938228	17.724854	4.294214	14.801568	38.052865	-37.504589	-45.000000	-44.999285	-633.389100	-1895.963220	140.351220	157.193479	1452.795231	-315.646671	6.069170	-22.683407	
3.4600	-40.295123	-5.437217	4.920339	-197.968450	893.998646	-4.299210	10.599206	-45.000000	36.503630	-45.000000	-42.798757	1699.381356	-2267.907116	148.555541	-96.457073	736.860691	61.422960	17.732892	4.239828	14.818429	38.067625	-37.633145	-45.000000	-44.998720	-633.374084	-1895.886939	140.296269	157.331297	1452.866010	-315.199891	5.937897	-22.643432	
3.4700	-40.295650	-5.301559	4.833965	-196.673613	894.496887	-4.126368	10.539241	-45.000000	36.624279	-45.000000	-42.363083	1699.412954	-2267.818102	148.523877	-96.495352	736.949556	61.979281	17.729156	4.179444	14.835849	38.083188	-37.792111	-45.000000	-44.997707	-633.333247	-1895.810340	140.237219	157.504598	1452.934815	-314.745570	5.809938	-22.600981	
3.4800	-40.295731	-5.150646	4.745599	-195.329973	895.108837	-3.962504	10.475582	-45.000000	36.754273	-45.000000	-41.873275	1699.424399	-2267.716415	148.483302	-96.562465	737.051508	62.609449	17.709963	4.110172	14.852312	38.099290	-37.980984	-45.000000	-44.995895	-633.279046	-1895.730931	140.173039	157.723535	1453.001807	-314.297174	5.686803	-22.557315	
3.4900	-40.298250	-4.984532	4.646498	-193.921725	895.843241	-3.808053	10.415110	-45.000000	36.897387	-45.000000	-41.325883	1699.421513	-2267.603908	148.429061	-96.664812	737.167613	63.314894	17.676026	4.032407	14.870176	38.116758	-38.189758	-45.000000	-44.992640	-633.210528	-1895.635888	140.090772	157.991254	1453.062307	-313.865793	5.570512	-22.511561	
3.5000	-40.300347	-4.800324	4.535228	-192.431910	896.701341	-3.661273	10.360669	-45.000000	37.063648	-45.000000	-40.711700	1699.399689	-2267.482754	148.363144	-96.801194	737.296757	64.098135	17.628714	3.947329	14.888448	38.134830	-38.425420	-45.000000	-44.986832	-633.133039	-1895.533613	139.992429	158.314433	1453.119617	-313.459256	5.459664	-22.463989	
3.5100	-40.305674	-4.623651	4.419878	-190.844123	897.675773	-3.518232	10.316861	-45.000000	37.256844	-45.000000	-40.045175	1699.378292	-2267.354669	148.294838	-96.963174	737.429883	64.951268	17.568202	3.857509	14.886660	38.148678	-38.662199	-45.000000	-44.976368	-633.054661	-1895.413817	139.882935	158.711562	1453.172606	-313.087294	5.347375	-22.407292	
3.5200	-40.315558	-4.442753	4.290420	-189.144265	898.749724	-3.373475	10.279479	-45.000000	37.479306	-45.000000	-39.312282	1699.357416	-2267.222166	148.226346	-97.147945	737.569186	65.867914	17.499538	3.765192	14.887451	38.166390	-38.908860	-45.000000	-44.957794	-632.971823	-1895.278556	139.750105	159.173617	1453.218915	-312.754552	5.237914	-22.345103	
3.5300	-40.333620	-4.272753	4.153105	-187.321087	899.896955	-3.221058	10.248846	-45.000000	37.730877	-45.000000	-38.519125	1699.348100	-2267.088216	148.164334	-97.344071	737.706436	66.835879	17.423439	3.673655	14.885181	38.188992	-39.143858	-45.000000	-44.924047	-632.887909	-1895.115339	139.592643	159.694636	1453.258027	-312.469656	5.128280	-22.273709	
3.5400	-40.359825	-4.099843	3.999197	-185.366261	901.082432	-3.055707	10.221871	-45.000000	38.009645	-45.000000	-37.640721	1699.344399	-2266.957847	148.108610	-97.545445	737.842997	67.850873	17.342124	3.584906	14.902881	38.229099	-39.389091	-45.000000	-44.864923	-632.792229	-1894.945252	139.411400	160.255861	1453.292224	-312.236361	5.024830	-22.199582	
3.5500	-40.394833	-3.938811	3.841746	-183.273572	902.263665	-2.873695	10.190603	-45.000000	38.307538	-45.000000	-36.687158	1699.355411	-2266.831667	148.066681	-97.740989	737.973169	68.904491	17.251121	3.499386	14.927367	38.287993	-39.630358	-45.000000	-44.755314	-632.691142	-1894.777143	139.222160	160.855327	1453.321908	-312.064570	4.925653	-22.120417	
3.5600	-40.439021	-3.771816	3.669564	-181.038010	903.392406	-2.673289	10.146924	-45.000000	38.627567	-45.000000	-35.632128	1699.375414	-2266.721602	148.041227	-97.927307	738.101800	70.002435	17.155593	3.420046	14.997944	38.381822	-39.887327	-45.000000	-44.569299	-632.579729	-1894.636186	139.029115	161.469619	1453.341925	-311.961934	4.839348	-22.041844	
3.5700	-40.492158	-3.609687	3.496381	-178.655223	904.416348	-2.454703	10.084065	-45.000000	38.955192	-45.000000	-34.499836	1699.414229	-2266.627092	148.035062	-98.096827	738.226641	71.142220	17.049064	3.345674	15.097901	38.505638	-40.144658	-45.000000	-44.283154	-632.471267	-1894.525507	138.848073	162.094661	1453.352981	-311.947199	4.766251	-21.963907	
